<svg xmlns="http://www.w3.org/2000/svg" width="21.944" height="21.944" viewBox="0 0 21.944 21.944">
  <g id="round-brush-24px" transform="translate(0 0)">
    <path id="Path_65" data-name="Path 65" d="M7.774,16.409A3.56,3.56,0,0,0,4.31,20.066,2.406,2.406,0,0,1,2,22.5a5.873,5.873,0,0,0,4.619,2.438,4.751,4.751,0,0,0,4.619-4.876A3.56,3.56,0,0,0,7.774,16.409ZM23.606,4.987,22.059,3.354a1.108,1.108,0,0,0-1.628,0L10.084,14.276l3.176,3.352L23.606,6.706A1.262,1.262,0,0,0,23.606,4.987Z" transform="translate(-2 -2.998)" fill="#fff"/>
  </g>
</svg>
