<svg xmlns="http://www.w3.org/2000/svg" width="16.488" height="16.488" viewBox="0 0 16.488 16.488">
  <path id="Union_3" data-name="Union 3" d="M14.656,16.488H1.832A1.834,1.834,0,0,1,0,14.656V1.832A1.834,1.834,0,0,1,1.832,0H14.656a1.834,1.834,0,0,1,1.832,1.832V14.656A1.834,1.834,0,0,1,14.656,16.488ZM1.832,1.832V14.656H14.656V1.832ZM5.455,13.611H3.216V11.372L9.187,5.4,11.426,7.64l-5.97,5.971Zm6.568-6.568h0L9.784,4.8l1.588-1.589,2.239,2.239L12.024,7.043Z" transform="translate(0 0)" fill="#fff"/>
</svg>
