<svg xmlns="http://www.w3.org/2000/svg" width="21.944" height="21.944" viewBox="0 0 21.944 21.944">
  <path id="sharp-insert_emoticon-24px" d="M12.961,2A10.972,10.972,0,1,0,23.944,12.972,10.967,10.967,0,0,0,12.961,2Zm.011,19.75a8.778,8.778,0,1,1,8.778-8.778A8.775,8.775,0,0,1,12.972,21.75Zm3.84-9.875a1.646,1.646,0,1,0-1.646-1.646A1.644,1.644,0,0,0,16.812,11.875Zm-7.68,0a1.646,1.646,0,1,0-1.646-1.646A1.644,1.644,0,0,0,9.132,11.875Zm3.84,7.132a6.031,6.031,0,0,0,5.607-3.84H7.365A6.031,6.031,0,0,0,12.972,19.007Z" transform="translate(-2 -2)" fill="#fff"/>
</svg>
