<svg xmlns="http://www.w3.org/2000/svg" width="87.576" height="85.514" viewBox="0 0 87.576 85.514">
  <g id="Symbol_15_4" data-name="Symbol 15 – 4" transform="translate(-787 409.999)">
    <path id="Subtraction_3" data-name="Subtraction 3" d="M29.93,59.86a30.144,30.144,0,0,1-6.032-.608,29.769,29.769,0,0,1-10.7-4.5A30.015,30.015,0,0,1,2.352,41.58,29.774,29.774,0,0,1,.608,35.962a30.209,30.209,0,0,1,0-12.064,29.768,29.768,0,0,1,4.5-10.7A30.016,30.016,0,0,1,18.28,2.352,29.775,29.775,0,0,1,23.9.608a30.21,30.21,0,0,1,12.064,0,29.768,29.768,0,0,1,10.7,4.5A30.02,30.02,0,0,1,57.508,18.28,29.817,29.817,0,0,1,59.252,23.9c.187.912.332,1.849.433,2.782H53.654a23.945,23.945,0,1,0,.044,6.157H59.72A29.9,29.9,0,0,1,29.93,59.86Z" transform="translate(799.998 -397.001)" fill="#fff"/>
    <path id="Subtraction_1" data-name="Subtraction 1" d="M42.757,85.514a43.074,43.074,0,0,1-8.617-.869,42.523,42.523,0,0,1-15.289-6.434A42.882,42.882,0,0,1,3.36,59.4,42.543,42.543,0,0,1,.869,51.374a43.174,43.174,0,0,1,0-17.234A42.524,42.524,0,0,1,7.3,18.851,42.882,42.882,0,0,1,26.114,3.36,42.54,42.54,0,0,1,34.14.869a43.172,43.172,0,0,1,17.234,0A42.524,42.524,0,0,1,66.663,7.3,42.882,42.882,0,0,1,82.154,26.114a42.541,42.541,0,0,1,2.491,8.026,43.173,43.173,0,0,1,0,17.234,42.523,42.523,0,0,1-6.434,15.289A42.882,42.882,0,0,1,59.4,82.154a42.542,42.542,0,0,1-8.026,2.491A43.074,43.074,0,0,1,42.757,85.514Zm0-76.963A34.206,34.206,0,1,0,76.963,42.757,34.244,34.244,0,0,0,42.757,8.552Z" transform="translate(787 -409.999)" fill="#fff"/>
    <path id="Path_20" data-name="Path 20" d="M795.235-170.356a27.606,27.606,0,0,0,.177,3.033c.038.338.081.671.145,1.116l.005.035c2.707,18.743,20.492,18.266,23.489,18.254a24.607,24.607,0,0,0,10.425-3.1" transform="translate(43.112 -180.111)" fill="none" stroke="#fff" stroke-linejoin="round" stroke-width="7"/>
    <path id="Rectangle_35" data-name="Rectangle 35" d="M29.93,0h.513a0,0,0,0,1,0,0V59.86a0,0,0,0,1,0,0H29.93A29.93,29.93,0,0,1,0,29.93v0A29.93,29.93,0,0,1,29.93,0Z" transform="translate(799.998 -397.001)" fill="#fff"/>
  </g>
</svg>
