<svg xmlns="http://www.w3.org/2000/svg" viewBox="0 0 300 300"><g transform="translate(-142 -139.995)"><path d="M53.571,0H246.429A53.571,53.571,0,0,1,300,53.571V300H53.571A53.571,53.571,0,0,1,0,246.429V53.571A53.571,53.571,0,0,1,53.571,0Z" transform="translate(142 139.995)" fill="#455f77"/><path d="M-381.593,756.814A90.084,90.084,0,0,1-399.612,755a89,89,0,0,1-16.783-5.21,89.278,89.278,0,0,1-15.187-8.243,90.132,90.132,0,0,1-13.233-10.917A90.178,90.178,0,0,1-455.731,717.4a89.454,89.454,0,0,1-8.243-15.187,89,89,0,0,1-5.21-16.783A90.061,90.061,0,0,1-471,667.407a90.06,90.06,0,0,1,1.817-18.019,88.992,88.992,0,0,1,5.21-16.783,89.459,89.459,0,0,1,8.243-15.187,90.141,90.141,0,0,1,10.917-13.233,90.1,90.1,0,0,1,13.233-10.917,89.359,89.359,0,0,1,15.187-8.242,88.9,88.9,0,0,1,16.783-5.21A90.039,90.039,0,0,1-381.593,578a90.037,90.037,0,0,1,18.018,1.816,88.876,88.876,0,0,1,16.783,5.21,89.434,89.434,0,0,1,15.186,8.242,90.12,90.12,0,0,1,13.233,10.917,90.059,90.059,0,0,1,10.917,13.233,89.414,89.414,0,0,1,8.244,15.187A89.033,89.033,0,0,1-294,649.388c.558,2.726.993,5.523,1.294,8.311h-18.016a71.76,71.76,0,0,0-70.869-61.818,71.607,71.607,0,0,0-71.526,71.525,71.607,71.607,0,0,0,71.526,71.525,71.564,71.564,0,0,0,71-62.84H-292.6a89.7,89.7,0,0,1-1.4,9.333,89.057,89.057,0,0,1-5.209,16.783,89.521,89.521,0,0,1-8.244,15.187,90.128,90.128,0,0,1-10.917,13.232,90.049,90.049,0,0,1-13.233,10.917,89.288,89.288,0,0,1-15.186,8.243A88.935,88.935,0,0,1-363.575,755,90.082,90.082,0,0,1-381.593,756.814Z" transform="translate(671.804 -380.223)" fill="#fff"/><path d="M127.725,255.449a128.665,128.665,0,0,1-25.741-2.595,127.024,127.024,0,0,1-45.671-19.218,128.1,128.1,0,0,1-46.275-56.2,127.08,127.08,0,0,1-7.442-23.975,128.967,128.967,0,0,1,0-51.482A127.026,127.026,0,0,1,21.813,56.313a128.1,128.1,0,0,1,56.2-46.275A127.081,127.081,0,0,1,101.984,2.6a128.964,128.964,0,0,1,51.482,0,127.028,127.028,0,0,1,45.671,19.218,128.1,128.1,0,0,1,46.275,56.2,127.079,127.079,0,0,1,7.442,23.975,128.968,128.968,0,0,1,0,51.482,127.023,127.023,0,0,1-19.219,45.671,128.1,128.1,0,0,1-56.2,46.275,127.083,127.083,0,0,1-23.975,7.442A128.665,128.665,0,0,1,127.725,255.449Zm0-229.9A102.179,102.179,0,1,0,229.9,127.725,102.3,102.3,0,0,0,127.725,25.545Z" transform="translate(161.976 158.949)" fill="#fff"/><path d="M795.235-170.356a82.543,82.543,0,0,0,.531,9.061c.114,1.011.241,2,.434,3.333l.015.1c8.087,55.99,61.214,54.565,70.165,54.529,9.536-.039,25.427-5.322,31.143-9.264" transform="translate(-479.873 507.14)" fill="none" stroke="#fff" stroke-linejoin="round" stroke-width="16"/><path d="M89.407,0H90.94V178.814H89.407A89.407,89.407,0,0,1,89.407,0Z" transform="translate(200.804 197.777)" fill="#fff"/></g></svg>