<?xml version="1.0" standalone="no"?>
<!DOCTYPE svg PUBLIC "-//W3C//DTD SVG 20010904//EN"
 "http://www.w3.org/TR/2001/REC-SVG-20010904/DTD/svg10.dtd">
<svg version="1.0" xmlns="http://www.w3.org/2000/svg"
 width="300.000000pt" height="300.000000pt" viewBox="0 0 300.000000 300.000000"
 preserveAspectRatio="xMidYMid meet">
<metadata></metadata>
<g transform="translate(0.000000,300.000000) scale(0.100000,-0.100000)"
fill="#000000" stroke="none">
<path d="M400 2986 c-193 -54 -350 -216 -390 -402 -7 -33 -10 -399 -8 -1114
l3 -1065 32 -73 c60 -139 156 -235 295 -295 l73 -32 1298 -3 1297 -2 0 1272
c0 1085 -2 1281 -15 1328 -45 168 -174 310 -340 373 l-60 22 -1070 2 c-833 1
-1080 -1 -1115 -11z m1301 -201 c448 -74 837 -409 983 -847 48 -144 61 -231
60 -413 0 -149 -3 -183 -26 -275 -15 -58 -38 -136 -52 -174 -77 -204 -230
-411 -403 -543 l-76 -58 44 -14 c27 -8 94 -14 174 -15 119 -1 136 2 205 27 41
15 82 30 90 32 10 3 28 -15 53 -51 20 -30 37 -60 37 -65 0 -14 -70 -44 -179
-75 -88 -25 -102 -26 -235 -21 -146 6 -217 20 -311 62 l-54 23 -58 -23 c-476
-192 -1016 -81 -1379 284 -239 240 -366 546 -367 886 0 356 122 655 372 906
220 221 450 328 796 373 51 6 235 -4 326 -19z"/>
<path d="M1336 2550 c-419 -66 -749 -363 -852 -766 -88 -350 12 -717 268 -972
156 -157 352 -257 571 -292 133 -22 441 5 462 41 3 5 -6 26 -20 46 -14 21 -25
43 -25 50 0 16 3 16 -95 -2 -393 -71 -764 107 -949 457 -148 277 -138 603 25
881 58 100 210 249 312 306 136 76 295 121 434 121 434 0 805 -302 887 -722
l14 -68 -87 0 -86 0 -17 70 c-22 93 -75 201 -135 275 -121 149 -320 256 -498
267 l-50 3 -3 -717 -2 -718 37 1 c21 0 63 6 93 12 46 10 55 15 53 32 -2 11 -6
55 -9 98 l-7 77 75 0 75 0 7 -62 c3 -34 8 -63 11 -66 11 -11 109 65 179 138
87 92 157 222 178 333 l13 67 87 0 87 0 -6 -37 c-8 -64 -41 -178 -67 -237 -66
-149 -202 -306 -335 -387 -41 -24 -76 -49 -78 -55 -2 -5 11 -31 28 -57 l31
-47 49 27 c84 45 210 154 280 242 151 187 229 408 229 650 -1 478 -340 894
-815 997 -87 19 -270 26 -349 14z"/>
</g>
</svg>
